<?xml version="1.0" encoding="UTF-8"?>

<!DOCTYPE svg PUBLIC '-//W3C//DTD SVG 1.0//EN' 'http://www.w3.org/TR/2001/REC-SVG-20010904/DTD/svg10.dtd'>
<svg xmlns:xlink="http://www.w3.org/1999/xlink" style="fill-opacity:1; color-rendering:auto; color-interpolation:auto; stroke:black; text-rendering:auto; stroke-linecap:square; stroke-miterlimit:10; stroke-opacity:1; shape-rendering:auto; fill:black; stroke-dasharray:none; font-weight:normal; stroke-width:1; font-family:&apos;Dialog&apos;; font-style:normal; stroke-linejoin:miter; font-size:12; stroke-dashoffset:0; image-rendering:auto;" xmlns="http://www.w3.org/2000/svg">
  <!--Generated by the Batik Graphics2D SVG Generator-->
  <defs id="genericDefs" />
  <g>
    <defs id="defs1">
      <clipPath clipPathUnits="userSpaceOnUse" id="clipPath1">
        <path d="M0 0 L741 0 L741 51 L0 51 L0 0 Z" />
      </clipPath>
      <clipPath clipPathUnits="userSpaceOnUse" id="clipPath2">
        <path d="M0 0 L0 51 L741 51 L741 0 Z" />
      </clipPath>
    </defs>
    <g style="fill:white; font-family:sans-serif; stroke:white;">
      <rect x="0" y="0" width="741" style="clip-path:url(#clipPath2); stroke:none;" height="51" />
      <path d="M4.1719 6.25 L5.9375 6.25 L8.1719 12.2031 L10.4219 6.25 L12.1875 6.25 L12.1875 15 L11.0312 15 L11.0312 7.3125 L8.7656 13.3125 L7.5781 13.3125 L5.3281 7.3125 L5.3281 15 L4.1719 15 L4.1719 6.25 ZM20.1035 11.4531 L20.1035 11.9688 L15.1348 11.9688 Q15.2129 13.0938 15.8145 13.6719 Q16.416 14.25 17.4785 14.25 Q18.1035 14.25 18.6895 14.1016 Q19.2754 13.9531 19.8535 13.6406 L19.8535 14.6719 Q19.2598 14.9062 18.6504 15.0391 Q18.041 15.1719 17.416 15.1719 Q15.8535 15.1719 14.9316 14.2578 Q14.0098 13.3438 14.0098 11.7812 Q14.0098 10.1719 14.8848 9.2266 Q15.7598 8.2812 17.2285 8.2812 Q18.5566 8.2812 19.3301 9.1328 Q20.1035 9.9844 20.1035 11.4531 ZM19.0254 11.125 Q19.0098 10.25 18.5254 9.7188 Q18.041 9.1875 17.2441 9.1875 Q16.3379 9.1875 15.7988 9.7031 Q15.2598 10.2188 15.1816 11.1406 L19.0254 11.125 ZM22.9395 6.5781 L22.9395 8.4375 L25.1582 8.4375 L25.1582 9.2812 L22.9395 9.2812 L22.9395 12.8438 Q22.9395 13.6406 23.1582 13.8672 Q23.377 14.0938 24.0488 14.0938 L25.1582 14.0938 L25.1582 15 L24.0488 15 Q22.7988 15 22.3223 14.5312 Q21.8457 14.0625 21.8457 12.8438 L21.8457 9.2812 L21.0645 9.2812 L21.0645 8.4375 L21.8457 8.4375 L21.8457 6.5781 L22.9395 6.5781 ZM30.3789 9.4375 Q30.1914 9.3438 29.9805 9.2891 Q29.7695 9.2344 29.5039 9.2344 Q28.5977 9.2344 28.1055 9.8281 Q27.6133 10.4219 27.6133 11.5469 L27.6133 15 L26.5352 15 L26.5352 8.4375 L27.6133 8.4375 L27.6133 9.4531 Q27.957 8.8594 28.5039 8.5703 Q29.0508 8.2812 29.832 8.2812 Q29.9414 8.2812 30.0742 8.2969 Q30.207 8.3125 30.3633 8.3438 L30.3789 9.4375 ZM31.5 8.4375 L32.5781 8.4375 L32.5781 15 L31.5 15 L31.5 8.4375 ZM31.5 5.875 L32.5781 5.875 L32.5781 7.25 L31.5 7.25 L31.5 5.875 ZM39.5684 8.6875 L39.5684 9.7031 Q39.0996 9.4375 38.6465 9.3125 Q38.1934 9.1875 37.7246 9.1875 Q36.6621 9.1875 36.084 9.8516 Q35.5059 10.5156 35.5059 11.7188 Q35.5059 12.9219 36.084 13.5859 Q36.6621 14.25 37.7246 14.25 Q38.1934 14.25 38.6465 14.125 Q39.0996 14 39.5684 13.75 L39.5684 14.75 Q39.1152 14.9531 38.6309 15.0625 Q38.1465 15.1719 37.5996 15.1719 Q36.1152 15.1719 35.2402 14.2422 Q34.3652 13.3125 34.3652 11.7188 Q34.3652 10.125 35.248 9.2031 Q36.1309 8.2812 37.6777 8.2812 Q38.1621 8.2812 38.6387 8.3828 Q39.1152 8.4844 39.5684 8.6875 ZM41.7129 13.5156 L42.9473 13.5156 L42.9473 15 L41.7129 15 L41.7129 13.5156 ZM41.7129 8.7969 L42.9473 8.7969 L42.9473 10.2812 L41.7129 10.2812 L41.7129 8.7969 ZM48.1328 6.25 L55.5234 6.25 L55.5234 7.25 L52.4297 7.25 L52.4297 15 L51.2422 15 L51.2422 7.25 L48.1328 7.25 L48.1328 6.25 ZM56.666 6.25 L57.8535 6.25 L57.8535 15 L56.666 15 L56.666 6.25 ZM60.2051 6.25 L61.9707 6.25 L64.2051 12.2031 L66.4551 6.25 L68.2207 6.25 L68.2207 15 L67.0645 15 L67.0645 7.3125 L64.7988 13.3125 L63.6113 13.3125 L61.3613 7.3125 L61.3613 15 L60.2051 15 L60.2051 6.25 ZM70.5586 6.25 L76.0898 6.25 L76.0898 7.25 L71.7461 7.25 L71.7461 9.8438 L75.918 9.8438 L75.918 10.8281 L71.7461 10.8281 L71.7461 14 L76.1992 14 L76.1992 15 L70.5586 15 L70.5586 6.25 Z" style="fill:rgb(51,51,51); clip-path:url(#clipPath2); stroke:none;" />
      <path d="M6.4375 30 L3.0938 21.25 L4.3281 21.25 L7.1094 28.6094 L9.875 21.25 L11.1094 21.25 L7.7812 30 L6.4375 30 ZM15.3184 26.7031 Q14.0215 26.7031 13.5137 27 Q13.0059 27.2969 13.0059 28.0156 Q13.0059 28.5938 13.3887 28.9297 Q13.7715 29.2656 14.4121 29.2656 Q15.3184 29.2656 15.8574 28.6328 Q16.3965 28 16.3965 26.9375 L16.3965 26.7031 L15.3184 26.7031 ZM17.4746 26.25 L17.4746 30 L16.3965 30 L16.3965 29 Q16.0215 29.5938 15.4746 29.8828 Q14.9277 30.1719 14.1309 30.1719 Q13.1152 30.1719 12.5215 29.6016 Q11.9277 29.0312 11.9277 28.0938 Q11.9277 26.9844 12.6699 26.4219 Q13.4121 25.8594 14.8809 25.8594 L16.3965 25.8594 L16.3965 25.75 Q16.3965 25 15.9043 24.5938 Q15.4121 24.1875 14.5371 24.1875 Q13.9746 24.1875 13.4355 24.3281 Q12.8965 24.4688 12.4121 24.7344 L12.4121 23.7344 Q13.0059 23.5 13.5605 23.3906 Q14.1152 23.2812 14.6465 23.2812 Q16.0684 23.2812 16.7715 24.0156 Q17.4746 24.75 17.4746 26.25 ZM19.6875 20.875 L20.7656 20.875 L20.7656 30 L19.6875 30 L19.6875 20.875 ZM22.9121 27.4062 L22.9121 23.4375 L23.9902 23.4375 L23.9902 27.375 Q23.9902 28.2969 24.3574 28.7656 Q24.7246 29.2344 25.4434 29.2344 Q26.3184 29.2344 26.8262 28.6797 Q27.334 28.125 27.334 27.1562 L27.334 23.4375 L28.4121 23.4375 L28.4121 30 L27.334 30 L27.334 28.9844 Q26.9434 29.5938 26.4277 29.8828 Q25.9121 30.1719 25.2246 30.1719 Q24.084 30.1719 23.498 29.4688 Q22.9121 28.7656 22.9121 27.4062 ZM36.252 26.4531 L36.252 26.9688 L31.2832 26.9688 Q31.3613 28.0938 31.9629 28.6719 Q32.5645 29.25 33.627 29.25 Q34.252 29.25 34.8379 29.1016 Q35.4238 28.9531 36.002 28.6406 L36.002 29.6719 Q35.4082 29.9062 34.7988 30.0391 Q34.1895 30.1719 33.5645 30.1719 Q32.002 30.1719 31.0801 29.2578 Q30.1582 28.3438 30.1582 26.7812 Q30.1582 25.1719 31.0332 24.2266 Q31.9082 23.2812 33.377 23.2812 Q34.7051 23.2812 35.4785 24.1328 Q36.252 24.9844 36.252 26.4531 ZM35.1738 26.125 Q35.1582 25.25 34.6738 24.7188 Q34.1895 24.1875 33.3926 24.1875 Q32.4863 24.1875 31.9473 24.7031 Q31.4082 25.2188 31.3301 26.1406 L35.1738 26.125 ZM38.291 28.5156 L39.5254 28.5156 L39.5254 30 L38.291 30 L38.291 28.5156 ZM38.291 23.7969 L39.5254 23.7969 L39.5254 25.2812 L38.291 25.2812 L38.291 23.7969 ZM45.9141 21.25 L51.4453 21.25 L51.4453 22.25 L47.1016 22.25 L47.1016 24.8438 L51.2734 24.8438 L51.2734 25.8281 L47.1016 25.8281 L47.1016 29 L51.5547 29 L51.5547 30 L45.9141 30 L45.9141 21.25 ZM58.918 23.4375 L56.543 26.625 L59.0273 30 L57.7617 30 L55.8555 27.4219 L53.9492 30 L52.668 30 L55.2148 26.5625 L52.8867 23.4375 L54.1523 23.4375 L55.9023 25.7812 L57.6367 23.4375 L58.918 23.4375 ZM65.2852 23.6875 L65.2852 24.7031 Q64.8164 24.4375 64.3633 24.3125 Q63.9102 24.1875 63.4414 24.1875 Q62.3789 24.1875 61.8008 24.8516 Q61.2227 25.5156 61.2227 26.7188 Q61.2227 27.9219 61.8008 28.5859 Q62.3789 29.25 63.4414 29.25 Q63.9102 29.25 64.3633 29.125 Q64.8164 29 65.2852 28.75 L65.2852 29.75 Q64.832 29.9531 64.3477 30.0625 Q63.8633 30.1719 63.3164 30.1719 Q61.832 30.1719 60.957 29.2422 Q60.082 28.3125 60.082 26.7188 Q60.082 25.125 60.9648 24.2031 Q61.8477 23.2812 63.3945 23.2812 Q63.8789 23.2812 64.3555 23.3828 Q64.832 23.4844 65.2852 23.6875 ZM67.1484 20.875 L68.2266 20.875 L68.2266 30 L67.1484 30 L67.1484 20.875 ZM70.373 27.4062 L70.373 23.4375 L71.4512 23.4375 L71.4512 27.375 Q71.4512 28.2969 71.8184 28.7656 Q72.1855 29.2344 72.9043 29.2344 Q73.7793 29.2344 74.2871 28.6797 Q74.7949 28.125 74.7949 27.1562 L74.7949 23.4375 L75.873 23.4375 L75.873 30 L74.7949 30 L74.7949 28.9844 Q74.4043 29.5938 73.8887 29.8828 Q73.373 30.1719 72.6855 30.1719 Q71.5449 30.1719 70.959 29.4688 Q70.373 28.7656 70.373 27.4062 ZM82.2754 23.625 L82.2754 24.6562 Q81.8223 24.4219 81.3301 24.3047 Q80.8379 24.1875 80.3066 24.1875 Q79.5098 24.1875 79.1035 24.4297 Q78.6973 24.6719 78.6973 25.1719 Q78.6973 25.5469 78.9863 25.7578 Q79.2754 25.9688 80.1504 26.1562 L80.5098 26.25 Q81.666 26.4844 82.1504 26.9375 Q82.6348 27.3906 82.6348 28.1875 Q82.6348 29.1094 81.9082 29.6406 Q81.1816 30.1719 79.916 30.1719 Q79.3848 30.1719 78.8145 30.0703 Q78.2441 29.9688 77.6191 29.7656 L77.6191 28.6406 Q78.2129 28.9531 78.791 29.1094 Q79.3691 29.2656 79.9473 29.2656 Q80.6973 29.2656 81.1113 29.0078 Q81.5254 28.75 81.5254 28.2656 Q81.5254 27.8281 81.2285 27.5938 Q80.9316 27.3594 79.9316 27.1406 L79.5566 27.0625 Q78.5566 26.8438 78.1113 26.4062 Q77.666 25.9688 77.666 25.2188 Q77.666 24.2812 78.3223 23.7812 Q78.9785 23.2812 80.1816 23.2812 Q80.7754 23.2812 81.3066 23.3672 Q81.8379 23.4531 82.2754 23.625 ZM84.3398 23.4375 L85.418 23.4375 L85.418 30 L84.3398 30 L84.3398 23.4375 ZM84.3398 20.875 L85.418 20.875 L85.418 22.25 L84.3398 22.25 L84.3398 20.875 ZM86.9082 23.4375 L88.0488 23.4375 L90.0957 28.9375 L92.1582 23.4375 L93.2988 23.4375 L90.8301 30 L89.3613 30 L86.9082 23.4375 ZM100.4004 26.4531 L100.4004 26.9688 L95.4316 26.9688 Q95.5098 28.0938 96.1113 28.6719 Q96.7129 29.25 97.7754 29.25 Q98.4004 29.25 98.9863 29.1016 Q99.5723 28.9531 100.1504 28.6406 L100.1504 29.6719 Q99.5566 29.9062 98.9473 30.0391 Q98.3379 30.1719 97.7129 30.1719 Q96.1504 30.1719 95.2285 29.2578 Q94.3066 28.3438 94.3066 26.7812 Q94.3066 25.1719 95.1816 24.2266 Q96.0566 23.2812 97.5254 23.2812 Q98.8535 23.2812 99.627 24.1328 Q100.4004 24.9844 100.4004 26.4531 ZM99.3223 26.125 Q99.3066 25.25 98.8223 24.7188 Q98.3379 24.1875 97.541 24.1875 Q96.6348 24.1875 96.0957 24.7031 Q95.5566 25.2188 95.4785 26.1406 L99.3223 26.125 Z" style="fill:rgb(51,51,51); clip-path:url(#clipPath2); stroke:none;" />
    </g>
    <g style="font-family:sans-serif;" transform="translate(0,51)">
      <path d="M14.4219 6.5312 L14.4219 7.6875 Q13.75 7.375 13.1484 7.2109 Q12.5469 7.0469 12 7.0469 Q11.0312 7.0469 10.5078 7.4219 Q9.9844 7.7969 9.9844 8.5 Q9.9844 9.0781 10.3281 9.375 Q10.6719 9.6719 11.6562 9.8438 L12.3594 10 Q13.6875 10.25 14.3203 10.8828 Q14.9531 11.5156 14.9531 12.5781 Q14.9531 13.8594 14.1016 14.5156 Q13.25 15.1719 11.5938 15.1719 Q10.9844 15.1719 10.2812 15.0312 Q9.5781 14.8906 8.8281 14.6094 L8.8281 13.3906 Q9.5469 13.7969 10.2422 14 Q10.9375 14.2031 11.5938 14.2031 Q12.6094 14.2031 13.1641 13.8047 Q13.7188 13.4062 13.7188 12.6719 Q13.7188 12.0312 13.3203 11.6641 Q12.9219 11.2969 12.0156 11.125 L11.2969 10.9844 Q9.9688 10.7188 9.3828 10.1562 Q8.7969 9.5938 8.7969 8.5938 Q8.7969 7.4219 9.6094 6.7578 Q10.4219 6.0938 11.8594 6.0938 Q12.4844 6.0938 13.1172 6.2031 Q13.75 6.3125 14.4219 6.5312 ZM17.8203 6.5781 L17.8203 8.4375 L20.0391 8.4375 L20.0391 9.2812 L17.8203 9.2812 L17.8203 12.8438 Q17.8203 13.6406 18.0391 13.8672 Q18.2578 14.0938 18.9297 14.0938 L20.0391 14.0938 L20.0391 15 L18.9297 15 Q17.6797 15 17.2031 14.5312 Q16.7266 14.0625 16.7266 12.8438 L16.7266 9.2812 L15.9453 9.2812 L15.9453 8.4375 L16.7266 8.4375 L16.7266 6.5781 L17.8203 6.5781 ZM25.7754 9.4375 L25.7754 5.875 L26.8535 5.875 L26.8535 15 L25.7754 15 L25.7754 14.0156 Q25.4316 14.5938 24.916 14.8828 Q24.4004 15.1719 23.666 15.1719 Q22.4785 15.1719 21.7285 14.2188 Q20.9785 13.2656 20.9785 11.7188 Q20.9785 10.1719 21.7285 9.2266 Q22.4785 8.2812 23.666 8.2812 Q24.4004 8.2812 24.916 8.5625 Q25.4316 8.8438 25.7754 9.4375 ZM22.1035 11.7188 Q22.1035 12.9062 22.5879 13.5859 Q23.0723 14.2656 23.9316 14.2656 Q24.791 14.2656 25.2832 13.5859 Q25.7754 12.9062 25.7754 11.7188 Q25.7754 10.5312 25.2832 9.8594 Q24.791 9.1875 23.9316 9.1875 Q23.0723 9.1875 22.5879 9.8594 Q22.1035 10.5312 22.1035 11.7188 ZM29.2207 13.5156 L30.4551 13.5156 L30.4551 15 L29.2207 15 L29.2207 13.5156 ZM37.9277 7.2188 L37.9277 14.0312 L39.3652 14.0312 Q41.1777 14.0312 42.0137 13.2109 Q42.8496 12.3906 42.8496 10.6094 Q42.8496 8.8594 42.0137 8.0391 Q41.1777 7.2188 39.3652 7.2188 L37.9277 7.2188 ZM36.7402 6.25 L39.1777 6.25 Q41.7246 6.25 42.9121 7.3047 Q44.0996 8.3594 44.0996 10.6094 Q44.0996 12.875 42.9043 13.9375 Q41.709 15 39.1777 15 L36.7402 15 L36.7402 6.25 ZM51.5586 11.4531 L51.5586 11.9688 L46.5898 11.9688 Q46.668 13.0938 47.2695 13.6719 Q47.8711 14.25 48.9336 14.25 Q49.5586 14.25 50.1445 14.1016 Q50.7305 13.9531 51.3086 13.6406 L51.3086 14.6719 Q50.7148 14.9062 50.1055 15.0391 Q49.4961 15.1719 48.8711 15.1719 Q47.3086 15.1719 46.3867 14.2578 Q45.4648 13.3438 45.4648 11.7812 Q45.4648 10.1719 46.3398 9.2266 Q47.2148 8.2812 48.6836 8.2812 Q50.0117 8.2812 50.7852 9.1328 Q51.5586 9.9844 51.5586 11.4531 ZM50.4805 11.125 Q50.4648 10.25 49.9805 9.7188 Q49.4961 9.1875 48.6992 9.1875 Q47.793 9.1875 47.2539 9.7031 Q46.7148 10.2188 46.6367 11.1406 L50.4805 11.125 ZM52.5508 8.4375 L53.6914 8.4375 L55.7383 13.9375 L57.8008 8.4375 L58.9414 8.4375 L56.4727 15 L55.0039 15 L52.5508 8.4375 ZM60.5742 13.5156 L61.8086 13.5156 L61.8086 15 L60.5742 15 L60.5742 13.5156 Z" style="stroke:none;" />
      <rect x="74" y="4" width="50" style="fill:rgb(115,165,255); stroke:none;" height="12" />
      <rect x="74" y="6" width="50" style="fill:rgb(174,203,255); stroke:none;" height="3" />
      <rect x="74" y="7" width="50" style="fill:rgb(208,225,255); stroke:none;" height="1" />
      <rect x="74" y="4" width="50" style="fill:none;" height="12" />
      <rect x="124" y="4" width="58" style="fill:rgb(215,0,0); stroke:none;" height="12" />
      <rect x="124" y="6" width="58" style="fill:rgb(231,108,108); stroke:none;" height="3" />
      <rect x="124" y="7" width="58" style="fill:rgb(241,170,170); stroke:none;" height="1" />
      <rect x="124" y="4" width="58" style="fill:none;" height="12" />
      <rect x="182" y="4" width="26" style="fill:rgb(70,215,70); stroke:none;" height="12" />
      <rect x="182" y="6" width="26" style="fill:rgb(148,231,148); stroke:none;" height="3" />
      <rect x="182" y="7" width="26" style="fill:rgb(193,241,193); stroke:none;" height="1" />
      <rect x="182" y="4" width="26" style="fill:none;" height="12" />
      <rect x="208" y="4" width="5" style="fill:rgb(105,17,169); stroke:none;" height="12" />
      <rect x="208" y="6" width="5" style="fill:rgb(168,117,205); stroke:none;" height="3" />
      <rect x="208" y="7" width="5" style="fill:rgb(204,175,226); stroke:none;" height="1" />
      <rect x="208" y="4" width="5" style="fill:none;" height="12" />
      <rect x="213" y="4" width="4" style="fill:rgb(255,153,0); stroke:none;" height="12" />
      <rect x="213" y="6" width="4" style="fill:rgb(255,196,108); stroke:none;" height="3" />
      <rect x="213" y="7" width="4" style="fill:rgb(255,221,170); stroke:none;" height="1" />
      <rect x="213" y="4" width="4" style="fill:none;" height="12" />
      <rect x="217" y="4" width="3" style="fill:blue; stroke:none;" height="12" />
      <rect x="217" y="6" width="3" style="fill:rgb(108,108,255); stroke:none;" height="3" />
      <rect x="217" y="7" width="3" style="fill:rgb(170,170,255); stroke:none;" height="1" />
      <rect x="217" y="4" width="3" style="fill:none;" height="12" />
      <rect x="220" y="4" width="2" style="fill:rgb(204,255,51); stroke:none;" height="12" />
      <rect x="220" y="6" width="2" style="fill:rgb(225,255,137); stroke:none;" height="3" />
      <rect x="220" y="7" width="2" style="fill:rgb(237,255,187); stroke:none;" height="1" />
      <rect x="220" y="4" width="2" style="fill:none;" height="12" />
      <rect x="222" y="4" width="4" style="fill:rgb(0,227,154); stroke:none;" height="12" />
      <rect x="222" y="6" width="4" style="fill:rgb(108,238,196); stroke:none;" height="3" />
      <rect x="222" y="7" width="4" style="fill:rgb(170,245,221); stroke:none;" height="1" />
      <rect x="222" y="4" width="4" style="fill:none;" height="12" />
      <rect x="226" y="4" width="2" style="fill:rgb(204,194,220); stroke:none;" height="12" />
      <rect x="226" y="6" width="2" style="fill:rgb(225,219,234); stroke:none;" height="3" />
      <rect x="226" y="7" width="2" style="fill:rgb(237,234,242); stroke:none;" height="1" />
      <rect x="226" y="4" width="2" style="fill:none;" height="12" />
      <rect x="228" y="4" width="4" style="stroke:none;" height="12" />
      <rect x="228" y="6" width="4" style="fill:rgb(108,108,108); stroke:none;" height="3" />
      <rect x="228" y="7" width="4" style="fill:rgb(170,170,170); stroke:none;" height="1" />
      <rect x="228" y="4" width="4" style="fill:none;" height="12" />
      <path d="M31.1719 21.25 L32.9375 21.25 L35.1719 27.2031 L37.4219 21.25 L39.1875 21.25 L39.1875 30 L38.0312 30 L38.0312 22.3125 L35.7656 28.3125 L34.5781 28.3125 L32.3281 22.3125 L32.3281 30 L31.1719 30 L31.1719 21.25 ZM47.1035 26.4531 L47.1035 26.9688 L42.1348 26.9688 Q42.2129 28.0938 42.8145 28.6719 Q43.416 29.25 44.4785 29.25 Q45.1035 29.25 45.6895 29.1016 Q46.2754 28.9531 46.8535 28.6406 L46.8535 29.6719 Q46.2598 29.9062 45.6504 30.0391 Q45.041 30.1719 44.416 30.1719 Q42.8535 30.1719 41.9316 29.2578 Q41.0098 28.3438 41.0098 26.7812 Q41.0098 25.1719 41.8848 24.2266 Q42.7598 23.2812 44.2285 23.2812 Q45.5566 23.2812 46.3301 24.1328 Q47.1035 24.9844 47.1035 26.4531 ZM46.0254 26.125 Q46.0098 25.25 45.5254 24.7188 Q45.041 24.1875 44.2441 24.1875 Q43.3379 24.1875 42.7988 24.7031 Q42.2598 25.2188 42.1816 26.1406 L46.0254 26.125 ZM51.8457 26.7031 Q50.5488 26.7031 50.041 27 Q49.5332 27.2969 49.5332 28.0156 Q49.5332 28.5938 49.916 28.9297 Q50.2988 29.2656 50.9395 29.2656 Q51.8457 29.2656 52.3848 28.6328 Q52.9238 28 52.9238 26.9375 L52.9238 26.7031 L51.8457 26.7031 ZM54.002 26.25 L54.002 30 L52.9238 30 L52.9238 29 Q52.5488 29.5938 52.002 29.8828 Q51.4551 30.1719 50.6582 30.1719 Q49.6426 30.1719 49.0488 29.6016 Q48.4551 29.0312 48.4551 28.0938 Q48.4551 26.9844 49.1973 26.4219 Q49.9395 25.8594 51.4082 25.8594 L52.9238 25.8594 L52.9238 25.75 Q52.9238 25 52.4316 24.5938 Q51.9395 24.1875 51.0645 24.1875 Q50.502 24.1875 49.9629 24.3281 Q49.4238 24.4688 48.9395 24.7344 L48.9395 23.7344 Q49.5332 23.5 50.0879 23.3906 Q50.6426 23.2812 51.1738 23.2812 Q52.5957 23.2812 53.2988 24.0156 Q54.002 24.75 54.002 26.25 ZM61.6836 26.0312 L61.6836 30 L60.6055 30 L60.6055 26.0781 Q60.6055 25.1406 60.2383 24.6797 Q59.8711 24.2188 59.1523 24.2188 Q58.2773 24.2188 57.7695 24.7734 Q57.2617 25.3281 57.2617 26.2969 L57.2617 30 L56.1836 30 L56.1836 23.4375 L57.2617 23.4375 L57.2617 24.4531 Q57.6523 23.8594 58.1758 23.5703 Q58.6992 23.2812 59.3867 23.2812 Q60.5117 23.2812 61.0977 23.9766 Q61.6836 24.6719 61.6836 26.0312 Z" style="stroke:none;" />
      <rect x="74" y="19" width="329" style="fill:rgb(115,165,255); stroke:none;" height="12" />
      <rect x="74" y="21" width="329" style="fill:rgb(174,203,255); stroke:none;" height="3" />
      <rect x="74" y="22" width="329" style="fill:rgb(208,225,255); stroke:none;" height="1" />
      <rect x="74" y="19" width="329" style="fill:none;" height="12" />
      <rect x="403" y="19" width="51" style="fill:rgb(215,0,0); stroke:none;" height="12" />
      <rect x="403" y="21" width="51" style="fill:rgb(231,108,108); stroke:none;" height="3" />
      <rect x="403" y="22" width="51" style="fill:rgb(241,170,170); stroke:none;" height="1" />
      <rect x="403" y="19" width="51" style="fill:none;" height="12" />
      <rect x="454" y="19" width="31" style="fill:rgb(70,215,70); stroke:none;" height="12" />
      <rect x="454" y="21" width="31" style="fill:rgb(148,231,148); stroke:none;" height="3" />
      <rect x="454" y="22" width="31" style="fill:rgb(193,241,193); stroke:none;" height="1" />
      <rect x="454" y="19" width="31" style="fill:none;" height="12" />
      <rect x="485" y="19" width="15" style="fill:rgb(105,17,169); stroke:none;" height="12" />
      <rect x="485" y="21" width="15" style="fill:rgb(168,117,205); stroke:none;" height="3" />
      <rect x="485" y="22" width="15" style="fill:rgb(204,175,226); stroke:none;" height="1" />
      <rect x="485" y="19" width="15" style="fill:none;" height="12" />
      <rect x="500" y="19" width="11" style="fill:rgb(255,153,0); stroke:none;" height="12" />
      <rect x="500" y="21" width="11" style="fill:rgb(255,196,108); stroke:none;" height="3" />
      <rect x="500" y="22" width="11" style="fill:rgb(255,221,170); stroke:none;" height="1" />
      <rect x="500" y="19" width="11" style="fill:none;" height="12" />
      <rect x="511" y="19" width="10" style="fill:blue; stroke:none;" height="12" />
      <rect x="511" y="21" width="10" style="fill:rgb(108,108,255); stroke:none;" height="3" />
      <rect x="511" y="22" width="10" style="fill:rgb(170,170,255); stroke:none;" height="1" />
      <rect x="511" y="19" width="10" style="fill:none;" height="12" />
      <rect x="521" y="19" width="9" style="fill:rgb(204,255,51); stroke:none;" height="12" />
      <rect x="521" y="21" width="9" style="fill:rgb(225,255,137); stroke:none;" height="3" />
      <rect x="521" y="22" width="9" style="fill:rgb(237,255,187); stroke:none;" height="1" />
      <rect x="521" y="19" width="9" style="fill:none;" height="12" />
      <rect x="530" y="19" width="3" style="fill:rgb(0,227,154); stroke:none;" height="12" />
      <rect x="530" y="21" width="3" style="fill:rgb(108,238,196); stroke:none;" height="3" />
      <rect x="530" y="22" width="3" style="fill:rgb(170,245,221); stroke:none;" height="1" />
      <rect x="530" y="19" width="3" style="fill:none;" height="12" />
      <rect x="533" y="19" width="5" style="fill:rgb(233,107,53); stroke:none;" height="12" />
      <rect x="533" y="21" width="5" style="fill:rgb(242,169,138); stroke:none;" height="3" />
      <rect x="533" y="22" width="5" style="fill:rgb(247,205,187); stroke:none;" height="1" />
      <rect x="533" y="19" width="5" style="fill:none;" height="12" />
      <rect x="538" y="19" width="5" style="fill:rgb(204,194,220); stroke:none;" height="12" />
      <rect x="538" y="21" width="5" style="fill:rgb(225,219,234); stroke:none;" height="3" />
      <rect x="538" y="22" width="5" style="fill:rgb(237,234,242); stroke:none;" height="1" />
      <rect x="538" y="19" width="5" style="fill:none;" height="12" />
      <rect x="543" y="19" width="2" style="fill:rgb(44,238,202); stroke:none;" height="12" />
      <rect x="543" y="21" width="2" style="fill:rgb(133,245,224); stroke:none;" height="3" />
      <rect x="543" y="22" width="2" style="fill:rgb(184,249,237); stroke:none;" height="1" />
      <rect x="543" y="19" width="2" style="fill:none;" height="12" />
      <rect x="545" y="19" width="1" style="stroke:none;" height="12" />
      <rect x="545" y="21" width="1" style="fill:rgb(108,108,108); stroke:none;" height="3" />
      <rect x="545" y="22" width="1" style="fill:rgb(170,170,170); stroke:none;" height="1" />
      <rect x="545" y="19" width="1" style="fill:none;" height="12" />
      <path d="M41.1719 36.25 L42.9375 36.25 L45.1719 42.2031 L47.4219 36.25 L49.1875 36.25 L49.1875 45 L48.0312 45 L48.0312 37.3125 L45.7656 43.3125 L44.5781 43.3125 L42.3281 37.3125 L42.3281 45 L41.1719 45 L41.1719 36.25 ZM54.4629 41.7031 Q53.166 41.7031 52.6582 42 Q52.1504 42.2969 52.1504 43.0156 Q52.1504 43.5938 52.5332 43.9297 Q52.916 44.2656 53.5566 44.2656 Q54.4629 44.2656 55.002 43.6328 Q55.541 43 55.541 41.9375 L55.541 41.7031 L54.4629 41.7031 ZM56.6191 41.25 L56.6191 45 L55.541 45 L55.541 44 Q55.166 44.5938 54.6191 44.8828 Q54.0723 45.1719 53.2754 45.1719 Q52.2598 45.1719 51.666 44.6016 Q51.0723 44.0312 51.0723 43.0938 Q51.0723 41.9844 51.8145 41.4219 Q52.5566 40.8594 54.0254 40.8594 L55.541 40.8594 L55.541 40.75 Q55.541 40 55.0488 39.5938 Q54.5566 39.1875 53.6816 39.1875 Q53.1191 39.1875 52.5801 39.3281 Q52.041 39.4688 51.5566 39.7344 L51.5566 38.7344 Q52.1504 38.5 52.7051 38.3906 Q53.2598 38.2812 53.791 38.2812 Q55.2129 38.2812 55.916 39.0156 Q56.6191 39.75 56.6191 41.25 ZM64.3008 38.4375 L61.9258 41.625 L64.4102 45 L63.1445 45 L61.2383 42.4219 L59.332 45 L58.0508 45 L60.5977 41.5625 L58.2695 38.4375 L59.5352 38.4375 L61.2852 40.7812 L63.0195 38.4375 L64.3008 38.4375 Z" style="stroke:none;" />
      <rect x="74" y="34" width="359" style="fill:rgb(115,165,255); stroke:none;" height="12" />
      <rect x="74" y="36" width="359" style="fill:rgb(174,203,255); stroke:none;" height="3" />
      <rect x="74" y="37" width="359" style="fill:rgb(208,225,255); stroke:none;" height="1" />
      <rect x="74" y="34" width="359" style="fill:none;" height="12" />
      <rect x="433" y="34" width="140" style="fill:rgb(215,0,0); stroke:none;" height="12" />
      <rect x="433" y="36" width="140" style="fill:rgb(231,108,108); stroke:none;" height="3" />
      <rect x="433" y="37" width="140" style="fill:rgb(241,170,170); stroke:none;" height="1" />
      <rect x="433" y="34" width="140" style="fill:none;" height="12" />
      <rect x="573" y="34" width="58" style="fill:rgb(70,215,70); stroke:none;" height="12" />
      <rect x="573" y="36" width="58" style="fill:rgb(148,231,148); stroke:none;" height="3" />
      <rect x="573" y="37" width="58" style="fill:rgb(193,241,193); stroke:none;" height="1" />
      <rect x="573" y="34" width="58" style="fill:none;" height="12" />
      <rect x="631" y="34" width="24" style="fill:rgb(105,17,169); stroke:none;" height="12" />
      <rect x="631" y="36" width="24" style="fill:rgb(168,117,205); stroke:none;" height="3" />
      <rect x="631" y="37" width="24" style="fill:rgb(204,175,226); stroke:none;" height="1" />
      <rect x="631" y="34" width="24" style="fill:none;" height="12" />
      <rect x="655" y="34" width="18" style="fill:rgb(255,153,0); stroke:none;" height="12" />
      <rect x="655" y="36" width="18" style="fill:rgb(255,196,108); stroke:none;" height="3" />
      <rect x="655" y="37" width="18" style="fill:rgb(255,221,170); stroke:none;" height="1" />
      <rect x="655" y="34" width="18" style="fill:none;" height="12" />
      <rect x="673" y="34" width="14" style="fill:blue; stroke:none;" height="12" />
      <rect x="673" y="36" width="14" style="fill:rgb(108,108,255); stroke:none;" height="3" />
      <rect x="673" y="37" width="14" style="fill:rgb(170,170,255); stroke:none;" height="1" />
      <rect x="673" y="34" width="14" style="fill:none;" height="12" />
      <rect x="687" y="34" width="13" style="fill:rgb(204,255,51); stroke:none;" height="12" />
      <rect x="687" y="36" width="13" style="fill:rgb(225,255,137); stroke:none;" height="3" />
      <rect x="687" y="37" width="13" style="fill:rgb(237,255,187); stroke:none;" height="1" />
      <rect x="687" y="34" width="13" style="fill:none;" height="12" />
      <rect x="700" y="34" width="7" style="fill:rgb(0,227,154); stroke:none;" height="12" />
      <rect x="700" y="36" width="7" style="fill:rgb(108,238,196); stroke:none;" height="3" />
      <rect x="700" y="37" width="7" style="fill:rgb(170,245,221); stroke:none;" height="1" />
      <rect x="700" y="34" width="7" style="fill:none;" height="12" />
      <rect x="707" y="34" width="8" style="fill:rgb(233,107,53); stroke:none;" height="12" />
      <rect x="707" y="36" width="8" style="fill:rgb(242,169,138); stroke:none;" height="3" />
      <rect x="707" y="37" width="8" style="fill:rgb(247,205,187); stroke:none;" height="1" />
      <rect x="707" y="34" width="8" style="fill:none;" height="12" />
      <rect x="715" y="34" width="7" style="fill:rgb(204,194,220); stroke:none;" height="12" />
      <rect x="715" y="36" width="7" style="fill:rgb(225,219,234); stroke:none;" height="3" />
      <rect x="715" y="37" width="7" style="fill:rgb(237,234,242); stroke:none;" height="1" />
      <rect x="715" y="34" width="7" style="fill:none;" height="12" />
      <rect x="722" y="34" width="3" style="fill:rgb(44,238,202); stroke:none;" height="12" />
      <rect x="722" y="36" width="3" style="fill:rgb(133,245,224); stroke:none;" height="3" />
      <rect x="722" y="37" width="3" style="fill:rgb(184,249,237); stroke:none;" height="1" />
      <rect x="722" y="34" width="3" style="fill:none;" height="12" />
      <rect x="725" y="34" width="4" style="stroke:none;" height="12" />
      <rect x="725" y="36" width="4" style="fill:rgb(108,108,108); stroke:none;" height="3" />
      <rect x="725" y="37" width="4" style="fill:rgb(170,170,170); stroke:none;" height="1" />
      <rect x="725" y="34" width="4" style="fill:none;" height="12" />
      <path d="M44.1719 51.25 L45.9375 51.25 L48.1719 57.2031 L50.4219 51.25 L52.1875 51.25 L52.1875 60 L51.0312 60 L51.0312 52.3125 L48.7656 58.3125 L47.5781 58.3125 L45.3281 52.3125 L45.3281 60 L44.1719 60 L44.1719 51.25 ZM54.4785 53.4375 L55.5566 53.4375 L55.5566 60 L54.4785 60 L54.4785 53.4375 ZM54.4785 50.875 L55.5566 50.875 L55.5566 52.25 L54.4785 52.25 L54.4785 50.875 ZM63.2812 56.0312 L63.2812 60 L62.2031 60 L62.2031 56.0781 Q62.2031 55.1406 61.8359 54.6797 Q61.4688 54.2188 60.75 54.2188 Q59.875 54.2188 59.3672 54.7734 Q58.8594 55.3281 58.8594 56.2969 L58.8594 60 L57.7812 60 L57.7812 53.4375 L58.8594 53.4375 L58.8594 54.4531 Q59.25 53.8594 59.7734 53.5703 Q60.2969 53.2812 60.9844 53.2812 Q62.1094 53.2812 62.6953 53.9766 Q63.2812 54.6719 63.2812 56.0312 Z" style="stroke:none;" />
      <rect x="74" y="49" width="241" style="fill:rgb(115,165,255); stroke:none;" height="12" />
      <rect x="74" y="51" width="241" style="fill:rgb(174,203,255); stroke:none;" height="3" />
      <rect x="74" y="52" width="241" style="fill:rgb(208,225,255); stroke:none;" height="1" />
      <rect x="74" y="49" width="241" style="fill:none;" height="12" />
      <rect x="315" y="49" width="67" style="fill:rgb(215,0,0); stroke:none;" height="12" />
      <rect x="315" y="51" width="67" style="fill:rgb(231,108,108); stroke:none;" height="3" />
      <rect x="315" y="52" width="67" style="fill:rgb(241,170,170); stroke:none;" height="1" />
      <rect x="315" y="49" width="67" style="fill:none;" height="12" />
      <rect x="382" y="49" width="3" style="fill:rgb(70,215,70); stroke:none;" height="12" />
      <rect x="382" y="51" width="3" style="fill:rgb(148,231,148); stroke:none;" height="3" />
      <rect x="382" y="52" width="3" style="fill:rgb(193,241,193); stroke:none;" height="1" />
      <rect x="382" y="49" width="3" style="fill:none;" height="12" />
      <rect x="385" y="49" width="11" style="fill:rgb(105,17,169); stroke:none;" height="12" />
      <rect x="385" y="51" width="11" style="fill:rgb(168,117,205); stroke:none;" height="3" />
      <rect x="385" y="52" width="11" style="fill:rgb(204,175,226); stroke:none;" height="1" />
      <rect x="385" y="49" width="11" style="fill:none;" height="12" />
      <rect x="396" y="49" width="9" style="fill:rgb(255,153,0); stroke:none;" height="12" />
      <rect x="396" y="51" width="9" style="fill:rgb(255,196,108); stroke:none;" height="3" />
      <rect x="396" y="52" width="9" style="fill:rgb(255,221,170); stroke:none;" height="1" />
      <rect x="396" y="49" width="9" style="fill:none;" height="12" />
      <rect x="405" y="49" width="9" style="fill:blue; stroke:none;" height="12" />
      <rect x="405" y="51" width="9" style="fill:rgb(108,108,255); stroke:none;" height="3" />
      <rect x="405" y="52" width="9" style="fill:rgb(170,170,255); stroke:none;" height="1" />
      <rect x="405" y="49" width="9" style="fill:none;" height="12" />
      <rect x="414" y="49" width="7" style="fill:rgb(204,255,51); stroke:none;" height="12" />
      <rect x="414" y="51" width="7" style="fill:rgb(225,255,137); stroke:none;" height="3" />
      <rect x="414" y="52" width="7" style="fill:rgb(237,255,187); stroke:none;" height="1" />
      <rect x="414" y="49" width="7" style="fill:none;" height="12" />
      <rect x="421" y="49" width="7" style="fill:rgb(0,227,154); stroke:none;" height="12" />
      <rect x="421" y="51" width="7" style="fill:rgb(108,238,196); stroke:none;" height="3" />
      <rect x="421" y="52" width="7" style="fill:rgb(170,245,221); stroke:none;" height="1" />
      <rect x="421" y="49" width="7" style="fill:none;" height="12" />
      <rect x="428" y="49" width="4" style="fill:rgb(233,107,53); stroke:none;" height="12" />
      <rect x="428" y="51" width="4" style="fill:rgb(242,169,138); stroke:none;" height="3" />
      <rect x="428" y="52" width="4" style="fill:rgb(247,205,187); stroke:none;" height="1" />
      <rect x="428" y="49" width="4" style="fill:none;" height="12" />
      <rect x="432" y="49" width="3" style="fill:rgb(204,194,220); stroke:none;" height="12" />
      <rect x="432" y="51" width="3" style="fill:rgb(225,219,234); stroke:none;" height="3" />
      <rect x="432" y="52" width="3" style="fill:rgb(237,234,242); stroke:none;" height="1" />
      <rect x="432" y="49" width="3" style="fill:none;" height="12" />
      <rect x="435" y="49" width="1" style="stroke:none;" height="12" />
      <rect x="435" y="51" width="1" style="fill:rgb(108,108,108); stroke:none;" height="3" />
      <rect x="435" y="52" width="1" style="fill:rgb(170,170,170); stroke:none;" height="1" />
      <rect x="435" y="49" width="1" style="fill:none;" height="12" />
      <path d="M26.5938 71.0312 L26.5938 75 L25.5156 75 L25.5156 71.0781 Q25.5156 70.1406 25.1484 69.6797 Q24.7812 69.2188 24.0625 69.2188 Q23.1875 69.2188 22.6797 69.7734 Q22.1719 70.3281 22.1719 71.2969 L22.1719 75 L21.0938 75 L21.0938 68.4375 L22.1719 68.4375 L22.1719 69.4531 Q22.5625 68.8594 23.0859 68.5703 Q23.6094 68.2812 24.2969 68.2812 Q25.4219 68.2812 26.0078 68.9766 Q26.5938 69.6719 26.5938 71.0312 ZM31.2773 69.1875 Q30.418 69.1875 29.9102 69.8672 Q29.4023 70.5469 29.4023 71.7188 Q29.4023 72.9062 29.9023 73.5781 Q30.4023 74.25 31.2773 74.25 Q32.1367 74.25 32.6445 73.5703 Q33.1523 72.8906 33.1523 71.7188 Q33.1523 70.5625 32.6445 69.875 Q32.1367 69.1875 31.2773 69.1875 ZM31.2773 68.2812 Q32.6836 68.2812 33.4883 69.1953 Q34.293 70.1094 34.293 71.7188 Q34.293 73.3281 33.4883 74.25 Q32.6836 75.1719 31.2773 75.1719 Q29.8711 75.1719 29.0664 74.25 Q28.2617 73.3281 28.2617 71.7188 Q28.2617 70.1094 29.0664 69.1953 Q29.8711 68.2812 31.2773 68.2812 ZM40.4004 69.4375 L40.4004 65.875 L41.4785 65.875 L41.4785 75 L40.4004 75 L40.4004 74.0156 Q40.0566 74.5938 39.541 74.8828 Q39.0254 75.1719 38.291 75.1719 Q37.1035 75.1719 36.3535 74.2188 Q35.6035 73.2656 35.6035 71.7188 Q35.6035 70.1719 36.3535 69.2266 Q37.1035 68.2812 38.291 68.2812 Q39.0254 68.2812 39.541 68.5625 Q40.0566 68.8438 40.4004 69.4375 ZM36.7285 71.7188 Q36.7285 72.9062 37.2129 73.5859 Q37.6973 74.2656 38.5566 74.2656 Q39.416 74.2656 39.9082 73.5859 Q40.4004 72.9062 40.4004 71.7188 Q40.4004 70.5312 39.9082 69.8594 Q39.416 69.1875 38.5566 69.1875 Q37.6973 69.1875 37.2129 69.8594 Q36.7285 70.5312 36.7285 71.7188 ZM49.3145 71.4531 L49.3145 71.9688 L44.3457 71.9688 Q44.4238 73.0938 45.0254 73.6719 Q45.627 74.25 46.6895 74.25 Q47.3145 74.25 47.9004 74.1016 Q48.4863 73.9531 49.0645 73.6406 L49.0645 74.6719 Q48.4707 74.9062 47.8613 75.0391 Q47.252 75.1719 46.627 75.1719 Q45.0645 75.1719 44.1426 74.2578 Q43.2207 73.3438 43.2207 71.7812 Q43.2207 70.1719 44.0957 69.2266 Q44.9707 68.2812 46.4395 68.2812 Q47.7676 68.2812 48.541 69.1328 Q49.3145 69.9844 49.3145 71.4531 ZM48.2363 71.125 Q48.2207 70.25 47.7363 69.7188 Q47.252 69.1875 46.4551 69.1875 Q45.5488 69.1875 45.0098 69.7031 Q44.4707 70.2188 44.3926 71.1406 L48.2363 71.125 ZM57.5742 67.0312 Q56.668 67.0312 56.207 67.9297 Q55.7461 68.8281 55.7461 70.6406 Q55.7461 72.4375 56.207 73.3359 Q56.668 74.2344 57.5742 74.2344 Q58.4961 74.2344 58.957 73.3359 Q59.418 72.4375 59.418 70.6406 Q59.418 68.8281 58.957 67.9297 Q58.4961 67.0312 57.5742 67.0312 ZM57.5742 66.0938 Q59.043 66.0938 59.8242 67.2578 Q60.6055 68.4219 60.6055 70.6406 Q60.6055 72.8438 59.8242 74.0078 Q59.043 75.1719 57.5742 75.1719 Q56.1055 75.1719 55.332 74.0078 Q54.5586 72.8438 54.5586 70.6406 Q54.5586 68.4219 55.332 67.2578 Q56.1055 66.0938 57.5742 66.0938 Z" style="stroke:none;" />
      <rect x="74" y="64" width="241" style="fill:rgb(115,165,255); stroke:none;" height="12" />
      <rect x="74" y="66" width="241" style="fill:rgb(174,203,255); stroke:none;" height="3" />
      <rect x="74" y="67" width="241" style="fill:rgb(208,225,255); stroke:none;" height="1" />
      <rect x="74" y="64" width="241" style="fill:none;" height="12" />
      <rect x="315" y="64" width="141" style="fill:rgb(215,0,0); stroke:none;" height="12" />
      <rect x="315" y="66" width="141" style="fill:rgb(231,108,108); stroke:none;" height="3" />
      <rect x="315" y="67" width="141" style="fill:rgb(241,170,170); stroke:none;" height="1" />
      <rect x="315" y="64" width="141" style="fill:none;" height="12" />
      <rect x="456" y="64" width="6" style="fill:rgb(70,215,70); stroke:none;" height="12" />
      <rect x="456" y="66" width="6" style="fill:rgb(148,231,148); stroke:none;" height="3" />
      <rect x="456" y="67" width="6" style="fill:rgb(193,241,193); stroke:none;" height="1" />
      <rect x="456" y="64" width="6" style="fill:none;" height="12" />
      <rect x="462" y="64" width="24" style="fill:rgb(105,17,169); stroke:none;" height="12" />
      <rect x="462" y="66" width="24" style="fill:rgb(168,117,205); stroke:none;" height="3" />
      <rect x="462" y="67" width="24" style="fill:rgb(204,175,226); stroke:none;" height="1" />
      <rect x="462" y="64" width="24" style="fill:none;" height="12" />
      <rect x="486" y="64" width="18" style="fill:rgb(255,153,0); stroke:none;" height="12" />
      <rect x="486" y="66" width="18" style="fill:rgb(255,196,108); stroke:none;" height="3" />
      <rect x="486" y="67" width="18" style="fill:rgb(255,221,170); stroke:none;" height="1" />
      <rect x="486" y="64" width="18" style="fill:none;" height="12" />
      <rect x="504" y="64" width="14" style="fill:blue; stroke:none;" height="12" />
      <rect x="504" y="66" width="14" style="fill:rgb(108,108,255); stroke:none;" height="3" />
      <rect x="504" y="67" width="14" style="fill:rgb(170,170,255); stroke:none;" height="1" />
      <rect x="504" y="64" width="14" style="fill:none;" height="12" />
      <rect x="518" y="64" width="12" style="fill:rgb(204,255,51); stroke:none;" height="12" />
      <rect x="518" y="66" width="12" style="fill:rgb(225,255,137); stroke:none;" height="3" />
      <rect x="518" y="67" width="12" style="fill:rgb(237,255,187); stroke:none;" height="1" />
      <rect x="518" y="64" width="12" style="fill:none;" height="12" />
      <rect x="530" y="64" width="8" style="fill:rgb(233,107,53); stroke:none;" height="12" />
      <rect x="530" y="66" width="8" style="fill:rgb(242,169,138); stroke:none;" height="3" />
      <rect x="530" y="67" width="8" style="fill:rgb(247,205,187); stroke:none;" height="1" />
      <rect x="530" y="64" width="8" style="fill:none;" height="12" />
      <rect x="538" y="64" width="7" style="fill:rgb(204,194,220); stroke:none;" height="12" />
      <rect x="538" y="66" width="7" style="fill:rgb(225,219,234); stroke:none;" height="3" />
      <rect x="538" y="67" width="7" style="fill:rgb(237,234,242); stroke:none;" height="1" />
      <rect x="538" y="64" width="7" style="fill:none;" height="12" />
      <rect x="545" y="64" width="2" style="stroke:none;" height="12" />
      <rect x="545" y="66" width="2" style="fill:rgb(108,108,108); stroke:none;" height="3" />
      <rect x="545" y="67" width="2" style="fill:rgb(170,170,170); stroke:none;" height="1" />
      <rect x="545" y="64" width="2" style="fill:none;" height="12" />
      <path d="M26.5938 86.0312 L26.5938 90 L25.5156 90 L25.5156 86.0781 Q25.5156 85.1406 25.1484 84.6797 Q24.7812 84.2188 24.0625 84.2188 Q23.1875 84.2188 22.6797 84.7734 Q22.1719 85.3281 22.1719 86.2969 L22.1719 90 L21.0938 90 L21.0938 83.4375 L22.1719 83.4375 L22.1719 84.4531 Q22.5625 83.8594 23.0859 83.5703 Q23.6094 83.2812 24.2969 83.2812 Q25.4219 83.2812 26.0078 83.9766 Q26.5938 84.6719 26.5938 86.0312 ZM31.2773 84.1875 Q30.418 84.1875 29.9102 84.8672 Q29.4023 85.5469 29.4023 86.7188 Q29.4023 87.9062 29.9023 88.5781 Q30.4023 89.25 31.2773 89.25 Q32.1367 89.25 32.6445 88.5703 Q33.1523 87.8906 33.1523 86.7188 Q33.1523 85.5625 32.6445 84.875 Q32.1367 84.1875 31.2773 84.1875 ZM31.2773 83.2812 Q32.6836 83.2812 33.4883 84.1953 Q34.293 85.1094 34.293 86.7188 Q34.293 88.3281 33.4883 89.25 Q32.6836 90.1719 31.2773 90.1719 Q29.8711 90.1719 29.0664 89.25 Q28.2617 88.3281 28.2617 86.7188 Q28.2617 85.1094 29.0664 84.1953 Q29.8711 83.2812 31.2773 83.2812 ZM40.4004 84.4375 L40.4004 80.875 L41.4785 80.875 L41.4785 90 L40.4004 90 L40.4004 89.0156 Q40.0566 89.5938 39.541 89.8828 Q39.0254 90.1719 38.291 90.1719 Q37.1035 90.1719 36.3535 89.2188 Q35.6035 88.2656 35.6035 86.7188 Q35.6035 85.1719 36.3535 84.2266 Q37.1035 83.2812 38.291 83.2812 Q39.0254 83.2812 39.541 83.5625 Q40.0566 83.8438 40.4004 84.4375 ZM36.7285 86.7188 Q36.7285 87.9062 37.2129 88.5859 Q37.6973 89.2656 38.5566 89.2656 Q39.416 89.2656 39.9082 88.5859 Q40.4004 87.9062 40.4004 86.7188 Q40.4004 85.5312 39.9082 84.8594 Q39.416 84.1875 38.5566 84.1875 Q37.6973 84.1875 37.2129 84.8594 Q36.7285 85.5312 36.7285 86.7188 ZM49.3145 86.4531 L49.3145 86.9688 L44.3457 86.9688 Q44.4238 88.0938 45.0254 88.6719 Q45.627 89.25 46.6895 89.25 Q47.3145 89.25 47.9004 89.1016 Q48.4863 88.9531 49.0645 88.6406 L49.0645 89.6719 Q48.4707 89.9062 47.8613 90.0391 Q47.252 90.1719 46.627 90.1719 Q45.0645 90.1719 44.1426 89.2578 Q43.2207 88.3438 43.2207 86.7812 Q43.2207 85.1719 44.0957 84.2266 Q44.9707 83.2812 46.4395 83.2812 Q47.7676 83.2812 48.541 84.1328 Q49.3145 84.9844 49.3145 86.4531 ZM48.2363 86.125 Q48.2207 85.25 47.7363 84.7188 Q47.252 84.1875 46.4551 84.1875 Q45.5488 84.1875 45.0098 84.7031 Q44.4707 85.2188 44.3926 86.1406 L48.2363 86.125 ZM55.2461 89 L57.1836 89 L57.1836 82.3281 L55.0742 82.75 L55.0742 81.6719 L57.168 81.25 L58.3555 81.25 L58.3555 89 L60.293 89 L60.293 90 L55.2461 90 L55.2461 89 Z" style="stroke:none;" />
      <rect x="74" y="79" width="359" style="fill:rgb(115,165,255); stroke:none;" height="12" />
      <rect x="74" y="81" width="359" style="fill:rgb(174,203,255); stroke:none;" height="3" />
      <rect x="74" y="82" width="359" style="fill:rgb(208,225,255); stroke:none;" height="1" />
      <rect x="74" y="79" width="359" style="fill:none;" height="12" />
      <rect x="433" y="79" width="58" style="fill:rgb(70,215,70); stroke:none;" height="12" />
      <rect x="433" y="81" width="58" style="fill:rgb(148,231,148); stroke:none;" height="3" />
      <rect x="433" y="82" width="58" style="fill:rgb(193,241,193); stroke:none;" height="1" />
      <rect x="433" y="79" width="58" style="fill:none;" height="12" />
      <rect x="491" y="79" width="12" style="fill:rgb(105,17,169); stroke:none;" height="12" />
      <rect x="491" y="81" width="12" style="fill:rgb(168,117,205); stroke:none;" height="3" />
      <rect x="491" y="82" width="12" style="fill:rgb(204,175,226); stroke:none;" height="1" />
      <rect x="491" y="79" width="12" style="fill:none;" height="12" />
      <rect x="503" y="79" width="8" style="fill:rgb(255,153,0); stroke:none;" height="12" />
      <rect x="503" y="81" width="8" style="fill:rgb(255,196,108); stroke:none;" height="3" />
      <rect x="503" y="82" width="8" style="fill:rgb(255,221,170); stroke:none;" height="1" />
      <rect x="503" y="79" width="8" style="fill:none;" height="12" />
      <rect x="511" y="79" width="9" style="fill:blue; stroke:none;" height="12" />
      <rect x="511" y="81" width="9" style="fill:rgb(108,108,255); stroke:none;" height="3" />
      <rect x="511" y="82" width="9" style="fill:rgb(170,170,255); stroke:none;" height="1" />
      <rect x="511" y="79" width="9" style="fill:none;" height="12" />
      <rect x="520" y="79" width="7" style="fill:rgb(204,255,51); stroke:none;" height="12" />
      <rect x="520" y="81" width="7" style="fill:rgb(225,255,137); stroke:none;" height="3" />
      <rect x="520" y="82" width="7" style="fill:rgb(237,255,187); stroke:none;" height="1" />
      <rect x="520" y="79" width="7" style="fill:none;" height="12" />
      <rect x="527" y="79" width="8" style="fill:rgb(0,227,154); stroke:none;" height="12" />
      <rect x="527" y="81" width="8" style="fill:rgb(108,238,196); stroke:none;" height="3" />
      <rect x="527" y="82" width="8" style="fill:rgb(170,245,221); stroke:none;" height="1" />
      <rect x="527" y="79" width="8" style="fill:none;" height="12" />
      <rect x="535" y="79" width="4" style="fill:rgb(233,107,53); stroke:none;" height="12" />
      <rect x="535" y="81" width="4" style="fill:rgb(242,169,138); stroke:none;" height="3" />
      <rect x="535" y="82" width="4" style="fill:rgb(247,205,187); stroke:none;" height="1" />
      <rect x="535" y="79" width="4" style="fill:none;" height="12" />
      <rect x="539" y="79" width="3" style="fill:rgb(204,194,220); stroke:none;" height="12" />
      <rect x="539" y="81" width="3" style="fill:rgb(225,219,234); stroke:none;" height="3" />
      <rect x="539" y="82" width="3" style="fill:rgb(237,234,242); stroke:none;" height="1" />
      <rect x="539" y="79" width="3" style="fill:none;" height="12" />
      <rect x="542" y="79" width="4" style="fill:rgb(44,238,202); stroke:none;" height="12" />
      <rect x="542" y="81" width="4" style="fill:rgb(133,245,224); stroke:none;" height="3" />
      <rect x="542" y="82" width="4" style="fill:rgb(184,249,237); stroke:none;" height="1" />
      <rect x="542" y="79" width="4" style="fill:none;" height="12" />
      <rect x="546" y="79" width="1" style="stroke:none;" height="12" />
      <rect x="546" y="81" width="1" style="fill:rgb(108,108,108); stroke:none;" height="3" />
      <rect x="546" y="82" width="1" style="fill:rgb(170,170,170); stroke:none;" height="1" />
      <rect x="546" y="79" width="1" style="fill:none;" height="12" />
      <path d="M26.5938 101.0312 L26.5938 105 L25.5156 105 L25.5156 101.0781 Q25.5156 100.1406 25.1484 99.6797 Q24.7812 99.2188 24.0625 99.2188 Q23.1875 99.2188 22.6797 99.7734 Q22.1719 100.3281 22.1719 101.2969 L22.1719 105 L21.0938 105 L21.0938 98.4375 L22.1719 98.4375 L22.1719 99.4531 Q22.5625 98.8594 23.0859 98.5703 Q23.6094 98.2812 24.2969 98.2812 Q25.4219 98.2812 26.0078 98.9766 Q26.5938 99.6719 26.5938 101.0312 ZM31.2773 99.1875 Q30.418 99.1875 29.9102 99.8672 Q29.4023 100.5469 29.4023 101.7188 Q29.4023 102.9062 29.9023 103.5781 Q30.4023 104.25 31.2773 104.25 Q32.1367 104.25 32.6445 103.5703 Q33.1523 102.8906 33.1523 101.7188 Q33.1523 100.5625 32.6445 99.875 Q32.1367 99.1875 31.2773 99.1875 ZM31.2773 98.2812 Q32.6836 98.2812 33.4883 99.1953 Q34.293 100.1094 34.293 101.7188 Q34.293 103.3281 33.4883 104.25 Q32.6836 105.1719 31.2773 105.1719 Q29.8711 105.1719 29.0664 104.25 Q28.2617 103.3281 28.2617 101.7188 Q28.2617 100.1094 29.0664 99.1953 Q29.8711 98.2812 31.2773 98.2812 ZM40.4004 99.4375 L40.4004 95.875 L41.4785 95.875 L41.4785 105 L40.4004 105 L40.4004 104.0156 Q40.0566 104.5938 39.541 104.8828 Q39.0254 105.1719 38.291 105.1719 Q37.1035 105.1719 36.3535 104.2188 Q35.6035 103.2656 35.6035 101.7188 Q35.6035 100.1719 36.3535 99.2266 Q37.1035 98.2812 38.291 98.2812 Q39.0254 98.2812 39.541 98.5625 Q40.0566 98.8438 40.4004 99.4375 ZM36.7285 101.7188 Q36.7285 102.9062 37.2129 103.5859 Q37.6973 104.2656 38.5566 104.2656 Q39.416 104.2656 39.9082 103.5859 Q40.4004 102.9062 40.4004 101.7188 Q40.4004 100.5312 39.9082 99.8594 Q39.416 99.1875 38.5566 99.1875 Q37.6973 99.1875 37.2129 99.8594 Q36.7285 100.5312 36.7285 101.7188 ZM49.3145 101.4531 L49.3145 101.9688 L44.3457 101.9688 Q44.4238 103.0938 45.0254 103.6719 Q45.627 104.25 46.6895 104.25 Q47.3145 104.25 47.9004 104.1016 Q48.4863 103.9531 49.0645 103.6406 L49.0645 104.6719 Q48.4707 104.9062 47.8613 105.0391 Q47.252 105.1719 46.627 105.1719 Q45.0645 105.1719 44.1426 104.2578 Q43.2207 103.3438 43.2207 101.7812 Q43.2207 100.1719 44.0957 99.2266 Q44.9707 98.2812 46.4395 98.2812 Q47.7676 98.2812 48.541 99.1328 Q49.3145 99.9844 49.3145 101.4531 ZM48.2363 101.125 Q48.2207 100.25 47.7363 99.7188 Q47.252 99.1875 46.4551 99.1875 Q45.5488 99.1875 45.0098 99.7031 Q44.4707 100.2188 44.3926 101.1406 L48.2363 101.125 ZM56.0586 104 L60.1992 104 L60.1992 105 L54.6367 105 L54.6367 104 Q55.3086 103.3125 56.4727 102.1328 Q57.6367 100.9531 57.9336 100.6094 Q58.5117 99.9844 58.7383 99.5391 Q58.9648 99.0938 58.9648 98.6719 Q58.9648 97.9688 58.4727 97.5312 Q57.9805 97.0938 57.1992 97.0938 Q56.6367 97.0938 56.0195 97.2812 Q55.4023 97.4688 54.6992 97.875 L54.6992 96.6719 Q55.418 96.3906 56.0352 96.2422 Q56.6523 96.0938 57.168 96.0938 Q58.5273 96.0938 59.3398 96.7734 Q60.1523 97.4531 60.1523 98.5938 Q60.1523 99.125 59.9492 99.6094 Q59.7461 100.0938 59.2148 100.75 Q59.0586 100.9219 58.2773 101.7344 Q57.4961 102.5469 56.0586 104 Z" style="stroke:none;" />
      <rect x="74" y="94" width="355" style="fill:rgb(115,165,255); stroke:none;" height="12" />
      <rect x="74" y="96" width="355" style="fill:rgb(174,203,255); stroke:none;" height="3" />
      <rect x="74" y="97" width="355" style="fill:rgb(208,225,255); stroke:none;" height="1" />
      <rect x="74" y="94" width="355" style="fill:none;" height="12" />
      <rect x="429" y="94" width="66" style="fill:rgb(215,0,0); stroke:none;" height="12" />
      <rect x="429" y="96" width="66" style="fill:rgb(231,108,108); stroke:none;" height="3" />
      <rect x="429" y="97" width="66" style="fill:rgb(241,170,170); stroke:none;" height="1" />
      <rect x="429" y="94" width="66" style="fill:none;" height="12" />
      <rect x="495" y="94" width="3" style="fill:rgb(70,215,70); stroke:none;" height="12" />
      <rect x="495" y="96" width="3" style="fill:rgb(148,231,148); stroke:none;" height="3" />
      <rect x="495" y="97" width="3" style="fill:rgb(193,241,193); stroke:none;" height="1" />
      <rect x="495" y="94" width="3" style="fill:none;" height="12" />
      <rect x="498" y="94" width="12" style="fill:rgb(105,17,169); stroke:none;" height="12" />
      <rect x="498" y="96" width="12" style="fill:rgb(168,117,205); stroke:none;" height="3" />
      <rect x="498" y="97" width="12" style="fill:rgb(204,175,226); stroke:none;" height="1" />
      <rect x="498" y="94" width="12" style="fill:none;" height="12" />
      <rect x="510" y="94" width="9" style="fill:rgb(255,153,0); stroke:none;" height="12" />
      <rect x="510" y="96" width="9" style="fill:rgb(255,196,108); stroke:none;" height="3" />
      <rect x="510" y="97" width="9" style="fill:rgb(255,221,170); stroke:none;" height="1" />
      <rect x="510" y="94" width="9" style="fill:none;" height="12" />
      <rect x="519" y="94" width="9" style="fill:blue; stroke:none;" height="12" />
      <rect x="519" y="96" width="9" style="fill:rgb(108,108,255); stroke:none;" height="3" />
      <rect x="519" y="97" width="9" style="fill:rgb(170,170,255); stroke:none;" height="1" />
      <rect x="519" y="94" width="9" style="fill:none;" height="12" />
      <rect x="528" y="94" width="7" style="fill:rgb(204,255,51); stroke:none;" height="12" />
      <rect x="528" y="96" width="7" style="fill:rgb(225,255,137); stroke:none;" height="3" />
      <rect x="528" y="97" width="7" style="fill:rgb(237,255,187); stroke:none;" height="1" />
      <rect x="528" y="94" width="7" style="fill:none;" height="12" />
      <rect x="535" y="94" width="4" style="fill:rgb(233,107,53); stroke:none;" height="12" />
      <rect x="535" y="96" width="4" style="fill:rgb(242,169,138); stroke:none;" height="3" />
      <rect x="535" y="97" width="4" style="fill:rgb(247,205,187); stroke:none;" height="1" />
      <rect x="535" y="94" width="4" style="fill:none;" height="12" />
      <rect x="539" y="94" width="4" style="fill:rgb(204,194,220); stroke:none;" height="12" />
      <rect x="539" y="96" width="4" style="fill:rgb(225,219,234); stroke:none;" height="3" />
      <rect x="539" y="97" width="4" style="fill:rgb(237,234,242); stroke:none;" height="1" />
      <rect x="539" y="94" width="4" style="fill:none;" height="12" />
      <rect x="543" y="94" width="3" style="fill:rgb(44,238,202); stroke:none;" height="12" />
      <rect x="543" y="96" width="3" style="fill:rgb(133,245,224); stroke:none;" height="3" />
      <rect x="543" y="97" width="3" style="fill:rgb(184,249,237); stroke:none;" height="1" />
      <rect x="543" y="94" width="3" style="fill:none;" height="12" />
      <rect x="546" y="94" width="1" style="stroke:none;" height="12" />
      <rect x="546" y="96" width="1" style="fill:rgb(108,108,108); stroke:none;" height="3" />
      <rect x="546" y="97" width="1" style="fill:rgb(170,170,170); stroke:none;" height="1" />
      <rect x="546" y="94" width="1" style="fill:none;" height="12" />
      <path d="M26.5938 116.0312 L26.5938 120 L25.5156 120 L25.5156 116.0781 Q25.5156 115.1406 25.1484 114.6797 Q24.7812 114.2188 24.0625 114.2188 Q23.1875 114.2188 22.6797 114.7734 Q22.1719 115.3281 22.1719 116.2969 L22.1719 120 L21.0938 120 L21.0938 113.4375 L22.1719 113.4375 L22.1719 114.4531 Q22.5625 113.8594 23.0859 113.5703 Q23.6094 113.2812 24.2969 113.2812 Q25.4219 113.2812 26.0078 113.9766 Q26.5938 114.6719 26.5938 116.0312 ZM31.2773 114.1875 Q30.418 114.1875 29.9102 114.8672 Q29.4023 115.5469 29.4023 116.7188 Q29.4023 117.9062 29.9023 118.5781 Q30.4023 119.25 31.2773 119.25 Q32.1367 119.25 32.6445 118.5703 Q33.1523 117.8906 33.1523 116.7188 Q33.1523 115.5625 32.6445 114.875 Q32.1367 114.1875 31.2773 114.1875 ZM31.2773 113.2812 Q32.6836 113.2812 33.4883 114.1953 Q34.293 115.1094 34.293 116.7188 Q34.293 118.3281 33.4883 119.25 Q32.6836 120.1719 31.2773 120.1719 Q29.8711 120.1719 29.0664 119.25 Q28.2617 118.3281 28.2617 116.7188 Q28.2617 115.1094 29.0664 114.1953 Q29.8711 113.2812 31.2773 113.2812 ZM40.4004 114.4375 L40.4004 110.875 L41.4785 110.875 L41.4785 120 L40.4004 120 L40.4004 119.0156 Q40.0566 119.5938 39.541 119.8828 Q39.0254 120.1719 38.291 120.1719 Q37.1035 120.1719 36.3535 119.2188 Q35.6035 118.2656 35.6035 116.7188 Q35.6035 115.1719 36.3535 114.2266 Q37.1035 113.2812 38.291 113.2812 Q39.0254 113.2812 39.541 113.5625 Q40.0566 113.8438 40.4004 114.4375 ZM36.7285 116.7188 Q36.7285 117.9062 37.2129 118.5859 Q37.6973 119.2656 38.5566 119.2656 Q39.416 119.2656 39.9082 118.5859 Q40.4004 117.9062 40.4004 116.7188 Q40.4004 115.5312 39.9082 114.8594 Q39.416 114.1875 38.5566 114.1875 Q37.6973 114.1875 37.2129 114.8594 Q36.7285 115.5312 36.7285 116.7188 ZM49.3145 116.4531 L49.3145 116.9688 L44.3457 116.9688 Q44.4238 118.0938 45.0254 118.6719 Q45.627 119.25 46.6895 119.25 Q47.3145 119.25 47.9004 119.1016 Q48.4863 118.9531 49.0645 118.6406 L49.0645 119.6719 Q48.4707 119.9062 47.8613 120.0391 Q47.252 120.1719 46.627 120.1719 Q45.0645 120.1719 44.1426 119.2578 Q43.2207 118.3438 43.2207 116.7812 Q43.2207 115.1719 44.0957 114.2266 Q44.9707 113.2812 46.4395 113.2812 Q47.7676 113.2812 48.541 114.1328 Q49.3145 114.9844 49.3145 116.4531 ZM48.2363 116.125 Q48.2207 115.25 47.7363 114.7188 Q47.252 114.1875 46.4551 114.1875 Q45.5488 114.1875 45.0098 114.7031 Q44.4707 115.2188 44.3926 116.1406 L48.2363 116.125 ZM58.6367 115.2812 Q59.4805 115.4688 59.957 116.0391 Q60.4336 116.6094 60.4336 117.4531 Q60.4336 118.75 59.543 119.4609 Q58.6523 120.1719 57.0117 120.1719 Q56.4648 120.1719 55.8789 120.0625 Q55.293 119.9531 54.6836 119.7344 L54.6836 118.5938 Q55.168 118.875 55.7539 119.0234 Q56.3398 119.1719 56.9805 119.1719 Q58.0898 119.1719 58.6758 118.7344 Q59.2617 118.2969 59.2617 117.4531 Q59.2617 116.6875 58.7148 116.25 Q58.168 115.8125 57.2148 115.8125 L56.1836 115.8125 L56.1836 114.8438 L57.2617 114.8438 Q58.1211 114.8438 58.5898 114.4922 Q59.0586 114.1406 59.0586 113.4844 Q59.0586 112.8125 58.582 112.4531 Q58.1055 112.0938 57.2148 112.0938 Q56.7148 112.0938 56.1602 112.1953 Q55.6055 112.2969 54.9336 112.5156 L54.9336 111.4688 Q55.6211 111.2812 56.207 111.1875 Q56.793 111.0938 57.3086 111.0938 Q58.668 111.0938 59.4492 111.7031 Q60.2305 112.3125 60.2305 113.3594 Q60.2305 114.0938 59.8164 114.5938 Q59.4023 115.0938 58.6367 115.2812 Z" style="stroke:none;" />
      <rect x="74" y="109" width="359" style="fill:rgb(115,165,255); stroke:none;" height="12" />
      <rect x="74" y="111" width="359" style="fill:rgb(174,203,255); stroke:none;" height="3" />
      <rect x="74" y="112" width="359" style="fill:rgb(208,225,255); stroke:none;" height="1" />
      <rect x="74" y="109" width="359" style="fill:none;" height="12" />
      <rect x="433" y="109" width="57" style="fill:rgb(70,215,70); stroke:none;" height="12" />
      <rect x="433" y="111" width="57" style="fill:rgb(148,231,148); stroke:none;" height="3" />
      <rect x="433" y="112" width="57" style="fill:rgb(193,241,193); stroke:none;" height="1" />
      <rect x="433" y="109" width="57" style="fill:none;" height="12" />
      <rect x="490" y="109" width="11" style="fill:rgb(105,17,169); stroke:none;" height="12" />
      <rect x="490" y="111" width="11" style="fill:rgb(168,117,205); stroke:none;" height="3" />
      <rect x="490" y="112" width="11" style="fill:rgb(204,175,226); stroke:none;" height="1" />
      <rect x="490" y="109" width="11" style="fill:none;" height="12" />
      <rect x="501" y="109" width="9" style="fill:rgb(255,153,0); stroke:none;" height="12" />
      <rect x="501" y="111" width="9" style="fill:rgb(255,196,108); stroke:none;" height="3" />
      <rect x="501" y="112" width="9" style="fill:rgb(255,221,170); stroke:none;" height="1" />
      <rect x="501" y="109" width="9" style="fill:none;" height="12" />
      <rect x="510" y="109" width="9" style="fill:blue; stroke:none;" height="12" />
      <rect x="510" y="111" width="9" style="fill:rgb(108,108,255); stroke:none;" height="3" />
      <rect x="510" y="112" width="9" style="fill:rgb(170,170,255); stroke:none;" height="1" />
      <rect x="510" y="109" width="9" style="fill:none;" height="12" />
      <rect x="519" y="109" width="7" style="fill:rgb(204,255,51); stroke:none;" height="12" />
      <rect x="519" y="111" width="7" style="fill:rgb(225,255,137); stroke:none;" height="3" />
      <rect x="519" y="112" width="7" style="fill:rgb(237,255,187); stroke:none;" height="1" />
      <rect x="519" y="109" width="7" style="fill:none;" height="12" />
      <rect x="526" y="109" width="7" style="fill:rgb(0,227,154); stroke:none;" height="12" />
      <rect x="526" y="111" width="7" style="fill:rgb(108,238,196); stroke:none;" height="3" />
      <rect x="526" y="112" width="7" style="fill:rgb(170,245,221); stroke:none;" height="1" />
      <rect x="526" y="109" width="7" style="fill:none;" height="12" />
      <rect x="533" y="109" width="4" style="fill:rgb(233,107,53); stroke:none;" height="12" />
      <rect x="533" y="111" width="4" style="fill:rgb(242,169,138); stroke:none;" height="3" />
      <rect x="533" y="112" width="4" style="fill:rgb(247,205,187); stroke:none;" height="1" />
      <rect x="533" y="109" width="4" style="fill:none;" height="12" />
      <rect x="537" y="109" width="4" style="fill:rgb(204,194,220); stroke:none;" height="12" />
      <rect x="537" y="111" width="4" style="fill:rgb(225,219,234); stroke:none;" height="3" />
      <rect x="537" y="112" width="4" style="fill:rgb(237,234,242); stroke:none;" height="1" />
      <rect x="537" y="109" width="4" style="fill:none;" height="12" />
      <rect x="541" y="109" width="3" style="fill:rgb(44,238,202); stroke:none;" height="12" />
      <rect x="541" y="111" width="3" style="fill:rgb(133,245,224); stroke:none;" height="3" />
      <rect x="541" y="112" width="3" style="fill:rgb(184,249,237); stroke:none;" height="1" />
      <rect x="541" y="109" width="3" style="fill:none;" height="12" />
      <rect x="544" y="109" width="2" style="stroke:none;" height="12" />
      <rect x="544" y="111" width="2" style="fill:rgb(108,108,108); stroke:none;" height="3" />
      <rect x="544" y="112" width="2" style="fill:rgb(170,170,170); stroke:none;" height="1" />
      <rect x="544" y="109" width="2" style="fill:none;" height="12" />
    </g>
  </g>
</svg>
